{
  "accessors": [
    {
      "bufferView": 2,
      "componentType": 5126,
      "count": 548,
      "max": [
        4499.9970703125,
        9.478251457214355,
        2000.004638671875
      ],
      "min": [
        -4500.005859375,
        0.0,
        -8500.001953125
      ],
      "type": "VEC3"
    },
    {
      "bufferView": 2,
      "byteOffset": 6576,
      "componentType": 5126,
      "count": 548,
      "max": [
        1.0,
        1.0,
        1.0
      ],
      "min": [
        -1.0,
        0.0,
        -1.0
      ],
      "type": "VEC3"
    },
    {
      "bufferView": 1,
      "componentType": 5126,
      "count": 548,
      "max": [
        1.0,
        1.0
      ],
      "min": [
        0.0,
        0.5
      ],
      "type": "VEC2"
    },
    {
      "bufferView": 0,
      "componentType": 5125,
      "count": 1110,
      "type": "SCALAR"
    },
    {
      "bufferView": 2,
      "byteOffset": 13152,
      "componentType": 5126,
      "count": 844,
      "max": [
        5073.8857421875,
        9.478251457214355,
        2573.89306640625
      ],
      "min": [
        -5073.888671875,
        -100.0,
        -9073.8896484375
      ],
      "type": "VEC3"
    },
    {
      "bufferView": 2,
      "byteOffset": 23280,
      "componentType": 5126,
      "count": 844,
      "max": [
        1.0,
        1.0,
        1.0
      ],
      "min": [
        -1.0,
        0.0,
        -1.0
      ],
      "type": "VEC3"
    },
    {
      "bufferView": 1,
      "byteOffset": 4384,
      "componentType": 5126,
      "count": 844,
      "max": [
        1.0,
        1.0
      ],
      "min": [
        0.0,
        0.0
      ],
      "type": "VEC2"
    },
    {
      "bufferView": 0,
      "byteOffset": 4440,
      "componentType": 5125,
      "count": 2004,
      "type": "SCALAR"
    },
    {
      "bufferView": 2,
      "byteOffset": 33408,
      "componentType": 5126,
      "count": 212,
      "max": [
        5073.8857421875,
        -100.0,
        2573.89306640625
      ],
      "min": [
        -5073.888671875,
        -500.0,
        -9073.8896484375
      ],
      "type": "VEC3"
    },
    {
      "bufferView": 2,
      "byteOffset": 35952,
      "componentType": 5126,
      "count": 212,
      "max": [
        1.0,
        0.0,
        1.0
      ],
      "min": [
        -1.0,
        -1.0,
        -1.0
      ],
      "type": "VEC3"
    },
    {
      "bufferView": 1,
      "byteOffset": 11136,
      "componentType": 5126,
      "count": 212,
      "max": [
        1.0,
        1.0
      ],
      "min": [
        0.0,
        0.0
      ],
      "type": "VEC2"
    },
    {
      "bufferView": 0,
      "byteOffset": 12456,
      "componentType": 5125,
      "count": 567,
      "type": "SCALAR"
    },
    {
      "bufferView": 2,
      "byteOffset": 38496,
      "componentType": 5126,
      "count": 168,
      "max": [
        3499.99853515625,
        9.478251457214355,
        1000.0028686523438
      ],
      "min": [
        -3500.00390625,
        9.478251457214355,
        -7499.99853515625
      ],
      "type": "VEC3"
    },
    {
      "bufferView": 2,
      "byteOffset": 40512,
      "componentType": 5126,
      "count": 168,
      "max": [
        1.0583874221481437e-08,
        1.0,
        0.0
      ],
      "min": [
        -1.5875881942406522e-08,
        1.0,
        0.0
      ],
      "type": "VEC3"
    },
    {
      "bufferView": 1,
      "byteOffset": 12832,
      "componentType": 5126,
      "count": 168,
      "max": [
        1.0,
        1.0
      ],
      "min": [
        0.0,
        1.0
      ],
      "type": "VEC2"
    },
    {
      "bufferView": 0,
      "byteOffset": 14724,
      "componentType": 5125,
      "count": 252,
      "type": "SCALAR"
    },
    {
      "bufferView": 2,
      "byteOffset": 42528,
      "componentType": 5126,
      "count": 180,
      "max": [
        3499.99853515625,
        9.478251457214355,
        1000.0028686523438
      ],
      "min": [
        -3500.00390625,
        9.478251457214355,
        -7500.0
      ],
      "type": "VEC3"
    },
    {
      "bufferView": 2,
      "byteOffset": 44688,
      "componentType": 5126,
      "count": 180,
      "max": [
        9.261031053142688e-09,
        1.0,
        0.0
      ],
      "min": [
        -1.5875881942406522e-08,
        1.0,
        0.0
      ],
      "type": "VEC3"
    },
    {
      "bufferView": 1,
      "byteOffset": 14176,
      "componentType": 5126,
      "count": 180,
      "max": [
        1.0,
        1.0
      ],
      "min": [
        0.0,
        0.5
      ],
      "type": "VEC2"
    },
    {
      "bufferView": 0,
      "byteOffset": 15732,
      "componentType": 5125,
      "count": 264,
      "type": "SCALAR"
    }
  ],
  "asset": {
    "extras": {
      "author": "Mauro3D (https://sketchfab.com/maurogsw)",
      "license": "CC-BY-4.0 (http://creativecommons.org/licenses/by/4.0/)",
      "source": "https://sketchfab.com/3d-models/track-5f5e9454fd59436e8d0dd38df9ec83c4",
      "title": "Track"
    },
    "generator": "Sketchfab-12.68.0",
    "version": "2.0"
  },
  "bufferViews": [
    {
      "buffer": 0,
      "byteLength": 16788,
      "name": "floatBufferViews",
      "target": 34963
    },
    {
      "buffer": 0,
      "byteLength": 15616,
      "byteOffset": 16788,
      "byteStride": 8,
      "name": "floatBufferViews",
      "target": 34962
    },
    {
      "buffer": 0,
      "byteLength": 46848,
      "byteOffset": 32404,
      "byteStride": 12,
      "name": "floatBufferViews",
      "target": 34962
    }
  ],
  "buffers": [
    {
      "byteLength": 79252,
      "uri": "scene.bin"
    }
  ],
  "materials": [
    {
      "doubleSided": true,
      "name": "TRACK",
      "pbrMetallicRoughness": {
        "baseColorFactor": [
          0.00719358,
          0.00719358,
          0.00719358,
          1.0
        ],
        "metallicFactor": 0.0,
        "roughnessFactor": 0.9983914666118417
      }
    },
    {
      "doubleSided": true,
      "name": "FLOOR",
      "pbrMetallicRoughness": {
        "baseColorFactor": [
          0.112508,
          0.334323,
          0.0659181,
          1.0
        ],
        "metallicFactor": 0.0,
        "roughnessFactor": 0.9401211635973117
      }
    },
    {
      "doubleSided": true,
      "name": "ROCK",
      "pbrMetallicRoughness": {
        "baseColorFactor": [
          0.233016,
          0.233016,
          0.233016,
          1.0
        ],
        "metallicFactor": 0.0,
        "roughnessFactor": 0.9478960384154909
      }
    },
    {
      "doubleSided": true,
      "name": "REDKERB",
      "pbrMetallicRoughness": {
        "baseColorFactor": [
          0.8,
          0.0190227,
          0.00439277,
          1.0
        ],
        "metallicFactor": 0.0,
        "roughnessFactor": 0.9588558588366938
      }
    },
    {
      "doubleSided": true,
      "name": "WHITEKERB",
      "pbrMetallicRoughness": {
        "baseColorFactor": [
          0.8,
          0.8,
          0.8,
          1.0
        ],
        "metallicFactor": 0.0,
        "roughnessFactor": 0.8211145618000169
      }
    }
  ],
  "meshes": [
    {
      "name": "Plane_TRACK_0",
      "primitives": [
        {
          "attributes": {
            "NORMAL": 1,
            "POSITION": 0,
            "TEXCOORD_0": 2
          },
          "indices": 3,
          "material": 0,
          "mode": 4
        }
      ]
    },
    {
      "name": "Plane_FLOOR_0",
      "primitives": [
        {
          "attributes": {
            "NORMAL": 5,
            "POSITION": 4,
            "TEXCOORD_0": 6
          },
          "indices": 7,
          "material": 1,
          "mode": 4
        }
      ]
    },
    {
      "name": "Plane_ROCK_0",
      "primitives": [
        {
          "attributes": {
            "NORMAL": 9,
            "POSITION": 8,
            "TEXCOORD_0": 10
          },
          "indices": 11,
          "material": 2,
          "mode": 4
        }
      ]
    },
    {
      "name": "Plane_REDKERB_0",
      "primitives": [
        {
          "attributes": {
            "NORMAL": 13,
            "POSITION": 12,
            "TEXCOORD_0": 14
          },
          "indices": 15,
          "material": 3,
          "mode": 4
        }
      ]
    },
    {
      "name": "Plane_WHITEKERB_0",
      "primitives": [
        {
          "attributes": {
            "NORMAL": 17,
            "POSITION": 16,
            "TEXCOORD_0": 18
          },
          "indices": 19,
          "material": 4,
          "mode": 4
        }
      ]
    }
  ],
  "nodes": [
    {
      "children": [
        1
      ],
      "matrix": [
        1.0,
        0.0,
        0.0,
        0.0,
        0.0,
        2.220446049250313e-16,
        -1.0,
        0.0,
        0.0,
        1.0,
        2.220446049250313e-16,
        0.0,
        0.0,
        0.0,
        0.0,
        1.0
      ],
      "name": "Sketchfab_model"
    },
    {
      "children": [
        2
      ],
      "matrix": [
        0.009999999776482582,
        0.0,
        0.0,
        0.0,
        0.0,
        0.0,
        0.009999999776482582,
        0.0,
        0.0,
        -0.009999999776482582,
        0.0,
        0.0,
        0.0,
        0.0,
        0.0,
        1.0
      ],
      "name": "b5a3ebb967264fd5b7916cda0f4eb90c.fbx"
    },
    {
      "children": [
        3
      ],
      "name": "RootNode"
    },
    {
      "children": [
        4,
        5,
        6,
        7,
        8
      ],
      "name": "Plane"
    },
    {
      "mesh": 0,
      "name": "Plane_TRACK_0"
    },
    {
      "mesh": 1,
      "name": "Plane_FLOOR_0"
    },
    {
      "mesh": 2,
      "name": "Plane_ROCK_0"
    },
    {
      "mesh": 3,
      "name": "Plane_REDKERB_0"
    },
    {
      "mesh": 4,
      "name": "Plane_WHITEKERB_0"
    }
  ],
  "scene": 0,
  "scenes": [
    {
      "name": "Sketchfab_Scene",
      "nodes": [
        0
      ]
    }
  ]
}
